<svg id="eGX4K6WFyzM1" xmlns="http://www.w3.org/2000/svg" xmlns:xlink="http://www.w3.org/1999/xlink" viewBox="0 0 300 300" shape-rendering="geometricPrecision" text-rendering="geometricPrecision" project-id="ccce325d46934832a1f943b87c491dde" export-id="482d4532d9fb436ab905ccc4f83cce25" cached="false"><path d="M218.615556,56.771433c-25.559454,0-81.762364-4.133343-102.244803.987347-12.86816,3.21709-2.094811,23.982017-10.686714,28.755367-8.426386,4.68139-32.455812-1.845407-38.621281,4.320153-6.198149,6.19824-.515791,21.105499-6.417545,26.164219-5.908833,5.06479-43.096732.567931-52.821339,5.430311-7.516829,3.75847-4.936571,46.663675-4.936571,53.809445c0,13.18809-3.700195,42.028245,0,50.353805c3.900783,8.77688,21.183578,5.34439,28.138466,5.92398c23.531213,1.96097,46.385406,1.97466,70.593,1.97466c40.644451,0,81.288913,0,121.933364,0c9.186105,0,33.648764,4.36292,40.479904-2.46832c8.868069-8.8682,5.923892-26.64369,5.923892-38.01218c0-32.29187.493653-64.51621.493653-96.75827c0-7.48743,1.581717-34.6535-3.949262-39.49317-3.280111-2.87014-41.440779-.98733-47.884764-.98733" transform="matrix(1.009441 0 0 1.100354 12.749248-14.653185)" fill="#f3a1b3" stroke="#f3a1b3" stroke-width="0.6"/></svg>
